STARTFONT 2.3
FONT -FontForge-Butcherman-Book-R-Normal--11-110-72-72-P-59-ISO10646-1
SIZE 11 72 72  2
FONTBOUNDINGBOX 17 21 -1 -7
COMMENT "Generated by fontforge, http://fontforge.sourceforge.net"
COMMENT "Copyright (c) 2011, Typomondo, with Reserved Font Name  "Butcherman"."
STARTPROPERTIES 41
FOUNDRY "FontForge"
FAMILY_NAME "Butcherman"
WEIGHT_NAME "Book"
SLANT "R"
SETWIDTH_NAME "Normal"
ADD_STYLE_NAME ""
PIXEL_SIZE 11
POINT_SIZE 110
RESOLUTION_X 72
RESOLUTION_Y 72
SPACING "P"
AVERAGE_WIDTH 59
CHARSET_REGISTRY "ISO10646"
CHARSET_ENCODING "1"
FONTNAME_REGISTRY ""
CHARSET_COLLECTIONS "ISO8859-2 ISO8859-9 ISO8859-4 ISO10646-1"
BITS_PER_PIXEL 2
FONT_NAME "Butcherman-Regular"
FACE_NAME "Butcherman Regular"
COPYRIGHT "Copyright (c) 2011, Typomondo, with Reserved Font Name  "Butcherman"."
FONT_VERSION "001.004"
FONT_ASCENT 9
FONT_DESCENT 2
UNDERLINE_POSITION -1
UNDERLINE_THICKNESS 1
X_HEIGHT 7
CAP_HEIGHT 7
DEFAULT_CHAR 3
RAW_ASCENT 799
RAW_DESCENT 200
NORM_SPACE 2
RELATIVE_WEIGHT 40
RELATIVE_SETWIDTH 50
SUPERSCRIPT_X 0
SUPERSCRIPT_Y 3
SUPERSCRIPT_SIZE 6
SUBSCRIPT_X 0
SUBSCRIPT_Y 0
SUBSCRIPT_SIZE 6
AVG_LOWERCASE_WIDTH 64
AVG_UPPERCASE_WIDTH 61
ENDPROPERTIES
CHARS 331
STARTCHAR NULL.dup1
ENCODING 0
SWIDTH 161 0
DWIDTH 2 0
BBX 1 1 0 0
BITMAP
00
ENDCHAR
STARTCHAR CR
ENCODING 13
SWIDTH 161 0
DWIDTH 2 0
BBX 1 1 0 0
BITMAP
00
ENDCHAR
STARTCHAR space
ENCODING 32
SWIDTH 161 0
DWIDTH 2 0
BBX 1 1 0 0
BITMAP
00
ENDCHAR
STARTCHAR exclam
ENCODING 33
SWIDTH 350 0
DWIDTH 4 0
BBX 4 14 0 0
BITMAP
54
BD
7C
7C
7C
3C
38
28
28
00
6D
7D
7D
14
ENDCHAR
STARTCHAR quotedbl
ENCODING 34
SWIDTH 541 0
DWIDTH 6 0
BBX 6 4 0 4
BITMAP
7AD0
79D0
35C0
2480
ENDCHAR
STARTCHAR numbersign
ENCODING 35
SWIDTH 583 0
DWIDTH 6 0
BBX 6 10 0 -1
BITMAP
0110
0960
1DA0
3FF0
2AE0
2580
7680
BFC0
5200
5200
ENDCHAR
STARTCHAR dollar
ENCODING 36
SWIDTH 534 0
DWIDTH 6 0
BBX 6 14 0 -3
BITMAP
0500
0500
0500
2F80
7FD0
BFD0
BAD0
7E40
1F80
26C0
3F80
0900
0500
0500
ENDCHAR
STARTCHAR percent
ENCODING 37
SWIDTH 828 0
DWIDTH 9 0
BBX 9 10 0 -1
BITMAP
001000
683000
BD6000
AD6100
6C9B80
24CB80
018A80
024B40
020100
020000
ENDCHAR
STARTCHAR ampersand
ENCODING 38
SWIDTH 522 0
DWIDTH 6 0
BBX 6 6 0 1
BITMAP
0E00
0E00
BFD0
6FD0
0E00
0900
ENDCHAR
STARTCHAR quotesingle
ENCODING 39
SWIDTH 300 0
DWIDTH 3 0
BBX 3 4 0 4
BITMAP
78
78
34
24
ENDCHAR
STARTCHAR parenleft
ENCODING 40
SWIDTH 372 0
DWIDTH 4 0
BBX 4 11 0 -1
BITMAP
01
0B
2E
7E
7D
B4
B4
B4
78
3D
1E
ENDCHAR
STARTCHAR parenright
ENCODING 41
SWIDTH 338 0
DWIDTH 4 0
BBX 4 11 0 -2
BITMAP
B4
BC
BD
7C
1C
1C
1C
2C
28
B0
40
ENDCHAR
STARTCHAR asterisk
ENCODING 42
SWIDTH 513 0
DWIDTH 6 0
BBX 6 7 0 2
BITMAP
0100
2740
1F00
BFD0
1F00
1B40
1500
ENDCHAR
STARTCHAR plus
ENCODING 43
SWIDTH 458 0
DWIDTH 5 0
BBX 5 5 0 2
BITMAP
0400
1D00
7F40
6E40
1D00
ENDCHAR
STARTCHAR comma
ENCODING 44
SWIDTH 361 0
DWIDTH 4 0
BBX 4 6 0 -2
BITMAP
69
7D
7D
5D
0D
08
ENDCHAR
STARTCHAR hyphen
ENCODING 45
SWIDTH 478 0
DWIDTH 5 0
BBX 5 3 0 3
BITMAP
1540
7F40
6A40
ENDCHAR
STARTCHAR period
ENCODING 46
SWIDTH 374 0
DWIDTH 4 0
BBX 4 4 0 0
BITMAP
6D
7E
7E
15
ENDCHAR
STARTCHAR slash
ENCODING 47
SWIDTH 291 0
DWIDTH 3 0
BBX 3 10 0 -1
BITMAP
04
0C
18
14
34
30
60
50
80
80
ENDCHAR
STARTCHAR zero
ENCODING 48
SWIDTH 528 0
DWIDTH 6 0
BBX 6 9 0 -1
BITMAP
2F40
7FC0
7FD0
7BD0
76D0
76C0
3780
2F40
0500
ENDCHAR
STARTCHAR one
ENCODING 49
SWIDTH 366 0
DWIDTH 4 0
BBX 4 8 0 0
BITMAP
6D
BD
2D
2D
2D
2C
1C
1C
ENDCHAR
STARTCHAR two
ENCODING 50
SWIDTH 575 0
DWIDTH 6 0
BBX 6 9 0 -1
BITMAP
2F80
7FD0
7FD0
7BD0
67C0
0780
0B90
7FF0
6560
ENDCHAR
STARTCHAR three
ENCODING 51
SWIDTH 517 0
DWIDTH 6 0
BBX 5 9 0 -1
BITMAP
2F40
BFC0
7FC0
7BC0
57C0
0BC0
19C0
1F80
0940
ENDCHAR
STARTCHAR four
ENCODING 52
SWIDTH 466 0
DWIDTH 5 0
BBX 5 11 0 -3
BITMAP
3F00
3D00
3C00
7C00
3A40
7B40
7B80
BF80
0740
0200
0100
ENDCHAR
STARTCHAR five
ENCODING 53
SWIDTH 583 0
DWIDTH 6 0
BBX 6 10 0 -1
BITMAP
0400
7FF0
7FF0
7FE0
7AA0
7940
2B80
19C0
1F80
0900
ENDCHAR
STARTCHAR six
ENCODING 54
SWIDTH 582 0
DWIDTH 6 0
BBX 6 9 0 -1
BITMAP
2F80
BFE0
BFF0
7BE0
79D0
3F90
38D0
2FD0
0A90
ENDCHAR
STARTCHAR seven
ENCODING 55
SWIDTH 624 0
DWIDTH 7 0
BBX 7 10 0 -1
BITMAP
0050
BFF8
BFF4
7FF0
7AE0
01D0
02C0
0380
0700
0A00
ENDCHAR
STARTCHAR eight
ENCODING 56
SWIDTH 459 0
DWIDTH 5 0
BBX 5 9 0 -1
BITMAP
7F40
BF80
7F40
7B40
3B00
2E00
3700
2F00
1500
ENDCHAR
STARTCHAR nine
ENCODING 57
SWIDTH 584 0
DWIDTH 6 0
BBX 6 9 0 -1
BITMAP
1F90
7FE0
BFF0
7EF0
7EF0
1AE0
29D0
3F80
0540
ENDCHAR
STARTCHAR colon
ENCODING 58
SWIDTH 386 0
DWIDTH 4 0
BBX 4 10 0 0
BITMAP
14
7E
7E
3E
00
00
6D
7E
3E
15
ENDCHAR
STARTCHAR semicolon
ENCODING 59
SWIDTH 375 0
DWIDTH 4 0
BBX 4 12 0 -2
BITMAP
14
7D
7D
7D
00
00
69
7D
7D
5D
0D
08
ENDCHAR
STARTCHAR less
ENCODING 60
SWIDTH 459 0
DWIDTH 5 0
BBX 5 6 0 1
BITMAP
1A40
2E00
7D00
7C00
2D00
0F40
ENDCHAR
STARTCHAR equal
ENCODING 61
SWIDTH 485 0
DWIDTH 5 0
BBX 5 4 0 3
BITMAP
6A40
6A40
1540
6A40
ENDCHAR
STARTCHAR greater
ENCODING 62
SWIDTH 432 0
DWIDTH 5 0
BBX 5 6 0 1
BITMAP
6800
3D00
1F40
0F40
2E00
7C00
ENDCHAR
STARTCHAR question
ENCODING 63
SWIDTH 577 0
DWIDTH 6 0
BBX 6 10 0 -1
BITMAP
1A00
7FC0
7FD0
7FD0
16D0
0380
0740
0000
0F00
0B00
ENDCHAR
STARTCHAR at
ENCODING 64
SWIDTH 930 0
DWIDTH 10 0
BBX 10 13 0 -3
BITMAP
005000
07FD00
1D5740
27FDC0
67FCE0
63ECE0
9268B0
62ACA0
72AEA0
36A780
280000
0BA800
015000
ENDCHAR
STARTCHAR A
ENCODING 65
SWIDTH 494 0
DWIDTH 5 0
BBX 5 10 0 -2
BITMAP
7F80
2F40
2F00
2F00
2B00
3B00
3F00
2B00
2600
0100
ENDCHAR
STARTCHAR B
ENCODING 66
SWIDTH 517 0
DWIDTH 6 0
BBX 6 9 0 -1
BITMAP
7FC0
3FD0
3FD0
2EC0
2E80
2F80
2A80
2F80
0500
ENDCHAR
STARTCHAR C
ENCODING 67
SWIDTH 504 0
DWIDTH 6 0
BBX 6 9 0 -1
BITMAP
2F80
BFD0
BFD0
BBD0
7580
7400
3A80
2F40
0600
ENDCHAR
STARTCHAR D
ENCODING 68
SWIDTH 522 0
DWIDTH 6 0
BBX 6 9 0 -1
BITMAP
6F80
7FD0
3FE0
3ED0
2CD0
2CC0
2EC0
1B80
1200
ENDCHAR
STARTCHAR E
ENCODING 69
SWIDTH 570 0
DWIDTH 6 0
BBX 6 9 0 -1
BITMAP
7FE0
3FD0
3FC0
3D80
2E40
2F40
2D40
1B40
0400
ENDCHAR
STARTCHAR F
ENCODING 70
SWIDTH 559 0
DWIDTH 6 0
BBX 6 9 0 -1
BITMAP
7FD0
2FD0
2FC0
2EC0
1E40
1F80
1D00
1D00
1400
ENDCHAR
STARTCHAR G
ENCODING 71
SWIDTH 499 0
DWIDTH 5 0
BBX 6 9 0 -1
BITMAP
2F40
BFC0
BFD0
7BC0
7680
7780
36C0
2F80
1600
ENDCHAR
STARTCHAR H
ENCODING 72
SWIDTH 726 0
DWIDTH 8 0
BBX 8 9 0 -1
BITMAP
6D7D
3D7C
3DB8
2DB4
2EF4
1EF0
1DB0
1DE0
0450
ENDCHAR
STARTCHAR I
ENCODING 73
SWIDTH 401 0
DWIDTH 4 0
BBX 4 9 0 -1
BITMAP
BF
3E
2E
2D
2D
2D
1D
1C
04
ENDCHAR
STARTCHAR J
ENCODING 74
SWIDTH 455 0
DWIDTH 5 0
BBX 5 8 0 0
BITMAP
1F40
0F00
0F00
0E00
0E00
9D00
ED00
BC00
ENDCHAR
STARTCHAR K
ENCODING 75
SWIDTH 580 0
DWIDTH 6 0
BBX 6 9 0 -1
BITMAP
7DE0
3D80
2F80
1F40
1F40
1F80
0E80
0DC0
0040
ENDCHAR
STARTCHAR L
ENCODING 76
SWIDTH 416 0
DWIDTH 5 0
BBX 5 9 0 -1
BITMAP
7D00
7C00
3C00
3C00
3C00
2C00
2E40
1F80
0540
ENDCHAR
STARTCHAR M
ENCODING 77
SWIDTH 740 0
DWIDTH 8 0
BBX 8 10 0 -1
BITMAP
0550
7EBD
3FBC
3FFC
2FF8
2FF8
1EB8
1EB8
1964
0400
ENDCHAR
STARTCHAR N
ENCODING 78
SWIDTH 610 0
DWIDTH 7 0
BBX 6 9 0 -1
BITMAP
7DF0
3DE0
3EE0
3FD0
2FD0
2FD0
1EC0
1DC0
1980
ENDCHAR
STARTCHAR O
ENCODING 79
SWIDTH 504 0
DWIDTH 6 0
BBX 6 9 0 -1
BITMAP
2F40
BFC0
BFD0
BBD0
76D0
76C0
3B80
2F40
0600
ENDCHAR
STARTCHAR P
ENCODING 80
SWIDTH 545 0
DWIDTH 6 0
BBX 6 9 0 -1
BITMAP
7FD0
3FE0
2FE0
2DD0
1DD0
1FC0
1D00
0D00
0500
ENDCHAR
STARTCHAR Q
ENCODING 81
SWIDTH 520 0
DWIDTH 6 0
BBX 6 9 0 -1
BITMAP
2F40
7FD0
BFD0
BED0
79D0
79D0
3EC0
1FD0
05D0
ENDCHAR
STARTCHAR R
ENCODING 82
SWIDTH 599 0
DWIDTH 7 0
BBX 7 9 0 -1
BITMAP
7FE0
3FF4
2FF4
2DB4
1EB0
0FE0
0DE0
0DE0
0450
ENDCHAR
STARTCHAR S
ENCODING 83
SWIDTH 504 0
DWIDTH 6 0
BBX 6 9 0 -1
BITMAP
2F80
7FD0
BFD0
BBD0
7E40
2F80
67C0
3F40
1500
ENDCHAR
STARTCHAR T
ENCODING 84
SWIDTH 622 0
DWIDTH 7 0
BBX 7 9 0 -1
BITMAP
7FE4
3FF0
3FF0
2FA0
0740
0740
0740
0340
0740
ENDCHAR
STARTCHAR U
ENCODING 85
SWIDTH 637 0
DWIDTH 7 0
BBX 7 8 0 0
BITMAP
7CF4
3CF0
3CF0
2CE0
2CE0
2DD0
2ED0
1E80
ENDCHAR
STARTCHAR V
ENCODING 86
SWIDTH 570 0
DWIDTH 6 0
BBX 6 9 0 -1
BITMAP
79F0
39D0
3AC0
2AC0
2B80
2F40
1F40
1F00
0A00
ENDCHAR
STARTCHAR W
ENCODING 87
SWIDTH 777 0
DWIDTH 9 0
BBX 8 9 0 0
BITMAP
0040
6DCE
2EED
1FF8
0FF4
0BF4
07F0
03B0
0260
ENDCHAR
STARTCHAR X
ENCODING 88
SWIDTH 587 0
DWIDTH 6 0
BBX 6 9 0 -1
BITMAP
7DE0
1EC0
0F80
0B40
0B40
0B00
0B40
0E80
0440
ENDCHAR
STARTCHAR Y
ENCODING 89
SWIDTH 688 0
DWIDTH 8 0
BBX 8 9 0 -1
BITMAP
7D79
0FB4
07E0
03D0
02D0
01D0
01D0
00D0
0040
ENDCHAR
STARTCHAR Z
ENCODING 90
SWIDTH 695 0
DWIDTH 8 0
BBX 8 9 0 -1
BITMAP
7FF9
3FFC
2FF4
2AE0
0380
0740
0B40
0FC0
0040
ENDCHAR
STARTCHAR bracketleft
ENCODING 91
SWIDTH 410 0
DWIDTH 5 0
BBX 4 10 0 0
BITMAP
15
7F
7E
74
74
74
74
74
79
3F
ENDCHAR
STARTCHAR backslash
ENCODING 92
SWIDTH 292 0
DWIDTH 3 0
BBX 4 10 0 -1
BITMAP
40
90
50
60
30
24
18
08
08
05
ENDCHAR
STARTCHAR bracketright
ENCODING 93
SWIDTH 407 0
DWIDTH 4 0
BBX 4 11 0 -1
BITMAP
55
BE
AE
0E
0E
0A
0B
0A
5E
BE
01
ENDCHAR
STARTCHAR asciicircum
ENCODING 94
SWIDTH 523 0
DWIDTH 6 0
BBX 6 4 0 8
BITMAP
1A00
2F40
3AC0
71D0
ENDCHAR
STARTCHAR underscore
ENCODING 95
SWIDTH 452 0
DWIDTH 5 0
BBX 5 3 0 -1
BITMAP
5500
7F40
1500
ENDCHAR
STARTCHAR grave
ENCODING 96
SWIDTH 444 0
DWIDTH 5 0
BBX 3 3 1 8
BITMAP
90
F8
14
ENDCHAR
STARTCHAR a
ENCODING 97
SWIDTH 479 0
DWIDTH 5 0
BBX 5 10 0 -1
BITMAP
0440
7F80
3F40
2F40
2F40
2B40
3B40
3B40
3B40
2640
ENDCHAR
STARTCHAR b
ENCODING 98
SWIDTH 610 0
DWIDTH 7 0
BBX 7 9 0 -1
BITMAP
6FF0
3FF4
2FF4
1EB4
1EB0
1FD0
0DA0
0EE0
0590
ENDCHAR
STARTCHAR c
ENCODING 99
SWIDTH 534 0
DWIDTH 6 0
BBX 6 9 0 -1
BITMAP
2F80
BFE0
BFE0
BEE0
7990
7800
3AC0
2F80
0500
ENDCHAR
STARTCHAR d
ENCODING 100
SWIDTH 573 0
DWIDTH 6 0
BBX 6 9 0 -1
BITMAP
7FD0
7FF0
3FF0
2FF0
1DA0
1DA0
0DD0
0FC0
0A80
ENDCHAR
STARTCHAR e
ENCODING 101
SWIDTH 632 0
DWIDTH 7 0
BBX 7 9 0 -1
BITMAP
7FF4
3FF0
3FE0
2EA0
2E40
1FC0
1D40
0FC0
0540
ENDCHAR
STARTCHAR f
ENCODING 102
SWIDTH 559 0
DWIDTH 6 0
BBX 6 9 0 -1
BITMAP
7FD0
2FD0
2FC0
2EC0
1E40
1F80
1D00
1D00
1500
ENDCHAR
STARTCHAR g
ENCODING 103
SWIDTH 546 0
DWIDTH 6 0
BBX 6 9 0 -1
BITMAP
2F80
BFE0
BFE0
7BE0
75D0
3A90
39D0
2FD0
0A80
ENDCHAR
STARTCHAR h
ENCODING 104
SWIDTH 730 0
DWIDTH 8 0
BBX 8 9 0 -1
BITMAP
7D7D
3D7C
3D78
2D78
1FF4
1EF0
1DB0
1DB0
0050
ENDCHAR
STARTCHAR i
ENCODING 105
SWIDTH 412 0
DWIDTH 5 0
BBX 4 8 0 0
BITMAP
7F
2E
2D
2D
2D
1D
1C
1C
ENDCHAR
STARTCHAR j
ENCODING 106
SWIDTH 458 0
DWIDTH 5 0
BBX 5 9 0 -1
BITMAP
1F40
0F40
0F00
0F00
0F00
9F00
EE00
BD00
0400
ENDCHAR
STARTCHAR k
ENCODING 107
SWIDTH 636 0
DWIDTH 7 0
BBX 7 9 0 -1
BITMAP
7DF4
3DD0
1EC0
1F80
1F40
0F80
0EC0
0DD0
0040
ENDCHAR
STARTCHAR l
ENCODING 108
SWIDTH 438 0
DWIDTH 5 0
BBX 5 9 0 -1
BITMAP
7E00
3D00
3D00
2D00
1D00
1D00
1E40
1FC0
0440
ENDCHAR
STARTCHAR m
ENCODING 109
SWIDTH 770 0
DWIDTH 8 0
BBX 8 8 0 0
BITMAP
6E7E
3FBC
3FFC
2FF8
2FF8
2EB4
1EB0
1D70
ENDCHAR
STARTCHAR n
ENCODING 110
SWIDTH 664 0
DWIDTH 7 0
BBX 7 9 0 -1
BITMAP
BDBC
3EB4
3FB0
3FF0
3FF0
2FE0
2EE0
19D0
1580
ENDCHAR
STARTCHAR o
ENCODING 111
SWIDTH 545 0
DWIDTH 6 0
BBX 6 9 0 -1
BITMAP
2F80
BFE0
BFE0
7AE0
76E0
76D0
3AC0
2F80
0140
ENDCHAR
STARTCHAR p
ENCODING 112
SWIDTH 557 0
DWIDTH 6 0
BBX 6 9 0 -1
BITMAP
7FD0
3FE0
2FE0
2DE0
2DD0
1FD0
1D40
1D00
0400
ENDCHAR
STARTCHAR q
ENCODING 113
SWIDTH 562 0
DWIDTH 6 0
BBX 6 9 0 -1
BITMAP
2FC0
7FE0
BFF0
BDF0
78E0
7CE0
2EE0
1FE0
01A0
ENDCHAR
STARTCHAR r
ENCODING 114
SWIDTH 616 0
DWIDTH 7 0
BBX 7 9 0 -1
BITMAP
7FE0
3FF8
2FF4
1EB4
1EB0
1FE0
1ED0
1DD0
0450
ENDCHAR
STARTCHAR s
ENCODING 115
SWIDTH 481 0
DWIDTH 5 0
BBX 5 9 0 -1
BITMAP
2F40
7FC0
BFC0
BBC0
7940
2F40
2740
3F00
1500
ENDCHAR
STARTCHAR t
ENCODING 116
SWIDTH 683 0
DWIDTH 8 0
BBX 7 9 0 -1
BITMAP
7FFC
3FF8
2FF4
2BE4
03C0
03C0
02C0
02C0
0280
ENDCHAR
STARTCHAR u
ENCODING 117
SWIDTH 708 0
DWIDTH 8 0
BBX 8 8 0 0
BITMAP
7D79
3D7C
2E78
2E78
1EB4
1EB4
0FB0
0AE0
ENDCHAR
STARTCHAR v
ENCODING 118
SWIDTH 644 0
DWIDTH 7 0
BBX 7 9 0 -1
BITMAP
7CB8
2DF0
2DE0
1ED0
0ED0
0BC0
07C0
0380
0200
ENDCHAR
STARTCHAR w
ENCODING 119
SWIDTH 704 0
DWIDTH 8 0
BBX 8 8 0 0
BITMAP
7A69
2EAC
1FF4
1FF0
0BF0
0BF0
07A0
0260
ENDCHAR
STARTCHAR x
ENCODING 120
SWIDTH 599 0
DWIDTH 7 0
BBX 7 9 0 -1
BITMAP
7DE4
1FD0
0F80
0B40
0B40
0B40
0B40
0E80
0440
ENDCHAR
STARTCHAR y
ENCODING 121
SWIDTH 604 0
DWIDTH 7 0
BBX 6 9 0 -1
BITMAP
7CE0
1ED0
0B80
0B80
0740
0340
0340
0340
0100
ENDCHAR
STARTCHAR z
ENCODING 122
SWIDTH 622 0
DWIDTH 7 0
BBX 7 9 0 -1
BITMAP
7FF4
3FF0
2FE0
2BD0
0380
0700
0A40
0FC0
0140
ENDCHAR
STARTCHAR braceleft
ENCODING 123
SWIDTH 372 0
DWIDTH 4 0
BBX 4 11 0 -1
BITMAP
01
0B
2E
7E
7D
B4
B4
B4
78
3D
1E
ENDCHAR
STARTCHAR bar
ENCODING 124
SWIDTH 208 0
DWIDTH 2 0
BBX 2 10 0 -1
BITMAP
50
60
60
50
60
60
60
50
50
50
ENDCHAR
STARTCHAR braceright
ENCODING 125
SWIDTH 338 0
DWIDTH 4 0
BBX 4 11 0 -2
BITMAP
B4
BC
BD
7C
1C
1C
1C
2C
28
B0
40
ENDCHAR
STARTCHAR asciitilde
ENCODING 126
SWIDTH 535 0
DWIDTH 6 0
BBX 6 3 0 6
BITMAP
1140
7BD0
2980
ENDCHAR
STARTCHAR exclamdown
ENCODING 161
SWIDTH 347 0
DWIDTH 4 0
BBX 4 14 0 0
BITMAP
24
7D
7D
6D
00
28
28
28
3C
7C
7C
7C
BD
14
ENDCHAR
STARTCHAR cent
ENCODING 162
SWIDTH 552 0
DWIDTH 6 0
BBX 6 15 0 -4
BITMAP
0500
0500
0500
2F80
7FE0
BFE0
7EE0
7990
3800
3DC0
2F80
0600
0100
0100
0100
ENDCHAR
STARTCHAR sterling
ENCODING 163
SWIDTH 589 0
DWIDTH 6 0
BBX 6 9 0 -1
BITMAP
2F80
7FE0
7FF0
7EF0
79E0
7D00
2E50
3FC0
0540
ENDCHAR
STARTCHAR yen
ENCODING 165
SWIDTH 692 0
DWIDTH 8 0
BBX 8 9 0 1
BITMAP
5450
7DBD
0FF0
07E0
6BE8
17D4
17E4
02C0
01C0
ENDCHAR
STARTCHAR brokenbar
ENCODING 166
SWIDTH 201 0
DWIDTH 2 0
BBX 2 10 0 -1
BITMAP
50
60
50
50
00
00
50
50
50
60
ENDCHAR
STARTCHAR section
ENCODING 167
SWIDTH 477 0
DWIDTH 5 0
BBX 5 10 0 -2
BITMAP
2F80
3FC0
3F80
3A40
7F40
B340
BB00
2E00
6A00
3D00
ENDCHAR
STARTCHAR dieresis
ENCODING 168
SWIDTH 633 0
DWIDTH 7 0
BBX 6 3 0 9
BITMAP
1450
7CF0
7CF0
ENDCHAR
STARTCHAR copyright
ENCODING 169
SWIDTH 783 0
DWIDTH 9 0
BBX 9 10 0 -1
BITMAP
015000
19A400
27E100
57F200
97F140
976140
571200
23A200
195800
06A000
ENDCHAR
STARTCHAR guillemotleft
ENCODING 171
SWIDTH 759 0
DWIDTH 8 0
BBX 8 7 0 0
BITMAP
0A19
2E7C
7CB8
B8F4
2C78
0F2D
0101
ENDCHAR
STARTCHAR uni00AD
ENCODING 173
SWIDTH 446 0
DWIDTH 5 0
BBX 5 2 0 3
BITMAP
6500
6A40
ENDCHAR
STARTCHAR registered
ENCODING 174
SWIDTH 780 0
DWIDTH 9 0
BBX 8 10 0 -1
BITMAP
0140
1954
2BE5
57F2
97B2
43B2
52A1
22B1
1958
02A0
ENDCHAR
STARTCHAR macron
ENCODING 175
SWIDTH 446 0
DWIDTH 5 0
BBX 5 2 0 3
BITMAP
6500
6A40
ENDCHAR
STARTCHAR acute
ENCODING 180
SWIDTH 439 0
DWIDTH 5 0
BBX 4 3 0 8
BITMAP
09
2E
50
ENDCHAR
STARTCHAR mu
ENCODING 181
SWIDTH 679 0
DWIDTH 7 0
BBX 8 8 0 0
BITMAP
7DA9
7DBC
3DB8
2DB4
2DB4
2DB0
1EE0
0AD0
ENDCHAR
STARTCHAR paragraph
ENCODING 182
SWIDTH 591 0
DWIDTH 7 0
BBX 7 9 0 -1
BITMAP
7FF4
BFA0
BF60
7F60
2E50
0250
0240
0240
0140
ENDCHAR
STARTCHAR periodcentered
ENCODING 183
SWIDTH 388 0
DWIDTH 4 0
BBX 4 4 0 2
BITMAP
6D
7E
3E
15
ENDCHAR
STARTCHAR cedilla
ENCODING 184
SWIDTH 270 0
DWIDTH 3 0
BBX 3 4 0 -4
BITMAP
60
64
24
64
ENDCHAR
STARTCHAR guillemotright
ENCODING 187
SWIDTH 767 0
DWIDTH 8 0
BBX 8 7 0 0
BITMAP
68A0
3D78
1F1E
0F1F
2E2E
7C7C
0050
ENDCHAR
STARTCHAR Agrave
ENCODING 192
SWIDTH 494 0
DWIDTH 5 0
BBX 6 13 -1 -2
BITMAP
2400
7E00
0500
1FE0
0BD0
0BC0
0BC0
0AC0
0EC0
0FC0
0AC0
0980
0040
ENDCHAR
STARTCHAR Aacute
ENCODING 193
SWIDTH 494 0
DWIDTH 5 0
BBX 7 13 0 -2
BITMAP
0060
02F4
0140
7F80
2F40
2F00
2F00
2B00
3B00
3F00
2B00
2600
0100
ENDCHAR
STARTCHAR Acircumflex
ENCODING 194
SWIDTH 494 0
DWIDTH 5 0
BBX 5 15 0 -2
BITMAP
1500
2F00
7780
91C0
0000
7F80
2F40
2F00
2F00
2B00
3B00
3F00
2B00
2600
0100
ENDCHAR
STARTCHAR Atilde
ENCODING 195
SWIDTH 494 0
DWIDTH 5 0
BBX 5 14 0 -2
BITMAP
1140
BBC0
2940
0000
7F80
2F40
2F00
2F00
2B00
3B00
3F00
2B00
2600
0100
ENDCHAR
STARTCHAR Adieresis
ENCODING 196
SWIDTH 494 0
DWIDTH 5 0
BBX 6 14 0 -2
BITMAP
5140
F6D0
F6D0
1000
7F80
2F40
2F00
2F00
2B00
3B00
3F00
2B00
2600
0100
ENDCHAR
STARTCHAR Aring
ENCODING 197
SWIDTH 494 0
DWIDTH 5 0
BBX 5 14 0 -2
BITMAP
0400
2B00
2600
1900
7F80
2F40
2F00
2F00
2B00
3B00
3F00
2B00
2600
0100
ENDCHAR
STARTCHAR AE
ENCODING 198
SWIDTH 733 0
DWIDTH 8 0
BBX 8 10 0 -2
BITMAP
7FFD
3FFC
2FFC
2F94
2BE0
3BF0
3F90
2BF4
2650
0140
ENDCHAR
STARTCHAR Ccedilla
ENCODING 199
SWIDTH 504 0
DWIDTH 6 0
BBX 6 13 0 -5
BITMAP
2F80
BFD0
BFD0
BBD0
7580
7400
3A80
2F40
0600
0240
0380
00C0
0280
ENDCHAR
STARTCHAR Egrave
ENCODING 200
SWIDTH 570 0
DWIDTH 6 0
BBX 6 12 0 -1
BITMAP
6000
BD00
0500
7FE0
3FD0
3FC0
3D80
2E40
2F40
2D40
1B40
0400
ENDCHAR
STARTCHAR Eacute
ENCODING 201
SWIDTH 570 0
DWIDTH 6 0
BBX 7 12 0 -1
BITMAP
0020
01F8
0140
7FE0
3FD0
3FC0
3D80
2E40
2F40
2D40
1B40
0400
ENDCHAR
STARTCHAR Ecircumflex
ENCODING 202
SWIDTH 570 0
DWIDTH 6 0
BBX 6 14 0 -1
BITMAP
0500
1F80
2AC0
7090
0000
7FE0
3FD0
3FC0
3D80
2E40
2F40
2D40
1B40
0400
ENDCHAR
STARTCHAR Edieresis
ENCODING 203
SWIDTH 570 0
DWIDTH 6 0
BBX 6 13 0 -1
BITMAP
1450
79E0
79F0
0000
7FE0
3FD0
3FC0
3D80
2E40
2F40
2D40
1B40
0400
ENDCHAR
STARTCHAR Igrave
ENCODING 204
SWIDTH 401 0
DWIDTH 4 0
BBX 5 12 -1 -1
BITMAP
6000
BD00
0500
2FC0
0F80
0B80
0B40
0B40
0B40
0740
0700
0100
ENDCHAR
STARTCHAR Iacute
ENCODING 205
SWIDTH 401 0
DWIDTH 4 0
BBX 6 12 0 -1
BITMAP
0080
07E0
0500
BF00
3E00
2E00
2D00
2D00
2D00
1D00
1C00
0400
ENDCHAR
STARTCHAR Icircumflex
ENCODING 206
SWIDTH 401 0
DWIDTH 4 0
BBX 6 14 -1 -1
BITMAP
0500
1F80
2AC0
7090
0000
2FC0
0F80
0B80
0B40
0B40
0B40
0740
0700
0100
ENDCHAR
STARTCHAR Idieresis
ENCODING 207
SWIDTH 401 0
DWIDTH 4 0
BBX 6 13 -1 -1
BITMAP
1450
79E0
79F0
1440
2FC0
0F80
0B80
0B40
0B40
0B40
0740
0700
0100
ENDCHAR
STARTCHAR Eth
ENCODING 208
SWIDTH 530 0
DWIDTH 6 0
BBX 6 9 0 -1
BITMAP
2FD0
3FF0
2FF0
1EF0
6EA0
1D90
0ED0
0FC0
0540
ENDCHAR
STARTCHAR Ntilde
ENCODING 209
SWIDTH 610 0
DWIDTH 7 0
BBX 6 13 0 -1
BITMAP
1040
3BE0
1980
0000
7DF0
3DE0
3EE0
3FD0
2FD0
2FD0
1EC0
1DC0
1980
ENDCHAR
STARTCHAR Ograve
ENCODING 210
SWIDTH 504 0
DWIDTH 6 0
BBX 7 12 -1 -1
BITMAP
2400
7E00
0600
0BD0
2FF0
2FF4
2EF4
1DB4
1DB0
0EE0
0BD0
0180
ENDCHAR
STARTCHAR Oacute
ENCODING 211
SWIDTH 504 0
DWIDTH 6 0
BBX 6 12 0 -1
BITMAP
0060
02F0
0140
2F40
BFC0
BFD0
BBD0
76D0
76C0
3B80
2F40
0600
ENDCHAR
STARTCHAR Ocircumflex
ENCODING 212
SWIDTH 504 0
DWIDTH 6 0
BBX 6 14 0 -1
BITMAP
1500
2F00
7780
91C0
0000
2F40
BFC0
BFD0
BBD0
76D0
76C0
3B80
2F40
0600
ENDCHAR
STARTCHAR Otilde
ENCODING 213
SWIDTH 504 0
DWIDTH 6 0
BBX 6 13 0 -1
BITMAP
0100
FF80
6940
0000
2F40
BFC0
BFD0
BBD0
76D0
76C0
3B80
2F40
0600
ENDCHAR
STARTCHAR Odieresis
ENCODING 214
SWIDTH 504 0
DWIDTH 6 0
BBX 6 13 0 -1
BITMAP
5140
F7D0
F7D0
1000
2F40
BFC0
BFD0
BBD0
76D0
76C0
3B80
2F40
0600
ENDCHAR
STARTCHAR multiply
ENCODING 215
SWIDTH 359 0
DWIDTH 4 0
BBX 4 4 0 2
BITMAP
6A
7D
7E
69
ENDCHAR
STARTCHAR Oslash
ENCODING 216
SWIDTH 658 0
DWIDTH 7 0
BBX 7 9 0 -1
BITMAP
1F90
7FE4
7FE0
7EE0
3AE0
3DE0
2ED0
6FC0
0540
ENDCHAR
STARTCHAR Ugrave
ENCODING 217
SWIDTH 637 0
DWIDTH 7 0
BBX 7 11 0 0
BITMAP
2400
7D00
0500
7CF4
3CF0
3CF0
2CE0
2CE0
2DD0
2ED0
1E80
ENDCHAR
STARTCHAR Uacute
ENCODING 218
SWIDTH 637 0
DWIDTH 7 0
BBX 7 11 0 0
BITMAP
0024
00B8
0040
7CF4
3CF0
3CF0
2CE0
2CE0
2DD0
2ED0
1E80
ENDCHAR
STARTCHAR Ucircumflex
ENCODING 219
SWIDTH 637 0
DWIDTH 7 0
BBX 7 13 0 0
BITMAP
0540
0FC0
1DD0
2460
0000
7CF4
3CF0
3CF0
2CE0
2CE0
2DD0
2ED0
1E80
ENDCHAR
STARTCHAR Udieresis
ENCODING 220
SWIDTH 637 0
DWIDTH 7 0
BBX 7 12 0 0
BITMAP
1450
3CF4
3CF4
1400
7CF4
3CF0
3CF0
2CE0
2CE0
2DD0
2ED0
1E80
ENDCHAR
STARTCHAR Yacute
ENCODING 221
SWIDTH 688 0
DWIDTH 8 0
BBX 8 13 0 -1
BITMAP
0018
007D
0050
0000
7D79
0FB4
07E0
03D0
02D0
01D0
01D0
00D0
0040
ENDCHAR
STARTCHAR Thorn
ENCODING 222
SWIDTH 521 0
DWIDTH 6 0
BBX 6 11 0 -1
BITMAP
BC00
BC00
BFC0
7FD0
7FD0
7DD0
3CC0
3F80
2D00
2C00
1400
ENDCHAR
STARTCHAR germandbls
ENCODING 223
SWIDTH 546 0
DWIDTH 6 0
BBX 6 9 0 -1
BITMAP
2FD0
BFE0
BFE0
BAD0
7AC0
7B80
3AC0
3A80
1640
ENDCHAR
STARTCHAR agrave
ENCODING 224
SWIDTH 479 0
DWIDTH 5 0
BBX 5 13 0 -1
BITMAP
A000
B800
0400
0440
7F80
3F40
2F40
2F40
2B40
3B40
3B40
3B40
2640
ENDCHAR
STARTCHAR aacute
ENCODING 225
SWIDTH 479 0
DWIDTH 5 0
BBX 7 13 0 -1
BITMAP
0060
01F4
0140
0440
7F80
3F40
2F40
2F40
2B40
3B40
3B40
3B40
2640
ENDCHAR
STARTCHAR acircumflex
ENCODING 226
SWIDTH 479 0
DWIDTH 5 0
BBX 5 14 0 -1
BITMAP
0500
2F40
3B80
A1C0
0440
7F80
3F40
2F40
2F40
2B40
3B40
3B40
3B40
2640
ENDCHAR
STARTCHAR atilde
ENCODING 227
SWIDTH 479 0
DWIDTH 5 0
BBX 5 13 0 -1
BITMAP
1100
BFC0
2940
0440
7F80
3F40
2F40
2F40
2B40
3B40
3B40
3B40
2640
ENDCHAR
STARTCHAR adieresis
ENCODING 228
SWIDTH 479 0
DWIDTH 5 0
BBX 6 13 0 -1
BITMAP
5150
B6E0
B6E0
1540
7F80
3F40
2F40
2F40
2B40
3B40
3B40
3B40
2640
ENDCHAR
STARTCHAR aring
ENCODING 229
SWIDTH 479 0
DWIDTH 5 0
BBX 5 14 0 -1
BITMAP
0400
1B40
1640
1A00
0440
7F80
3F40
2F40
2F40
2B40
3B40
3B40
3B40
2640
ENDCHAR
STARTCHAR ae
ENCODING 230
SWIDTH 755 0
DWIDTH 8 0
BBX 8 10 0 -1
BITMAP
0440
7FFE
2FFD
2FFC
2FE8
2BD0
3BF4
3FD0
3BF4
2654
ENDCHAR
STARTCHAR ccedilla
ENCODING 231
SWIDTH 534 0
DWIDTH 6 0
BBX 6 13 0 -5
BITMAP
2F80
BFE0
BFE0
BEE0
7990
7800
3AC0
2F80
0500
0200
0340
0180
0240
ENDCHAR
STARTCHAR egrave
ENCODING 232
SWIDTH 632 0
DWIDTH 7 0
BBX 7 12 0 -1
BITMAP
2400
7D00
0500
7FF4
3FF0
3FE0
2EA0
2E40
1FC0
1D40
0FC0
0540
ENDCHAR
STARTCHAR eacute
ENCODING 233
SWIDTH 632 0
DWIDTH 7 0
BBX 7 12 0 -1
BITMAP
0024
00B8
0140
7FF4
3FF0
3FE0
2EA0
2E40
1FC0
1D40
0FC0
0540
ENDCHAR
STARTCHAR ecircumflex
ENCODING 234
SWIDTH 632 0
DWIDTH 7 0
BBX 7 14 0 -1
BITMAP
0540
0F80
2ED0
34A0
0000
7FF4
3FF0
3FE0
2EA0
2E40
1FC0
1D40
0FC0
0540
ENDCHAR
STARTCHAR edieresis
ENCODING 235
SWIDTH 632 0
DWIDTH 7 0
BBX 7 13 0 -1
BITMAP
1450
7CF0
7CF0
0400
7FF4
3FF0
3FE0
2EA0
2E40
1FC0
1D40
0FC0
0540
ENDCHAR
STARTCHAR igrave
ENCODING 236
SWIDTH 411 0
DWIDTH 5 0
BBX 5 11 -1 0
BITMAP
2000
BD00
0500
1FC0
0B80
0B40
0B40
0B40
0740
0700
0700
ENDCHAR
STARTCHAR iacute
ENCODING 237
SWIDTH 411 0
DWIDTH 5 0
BBX 6 12 0 0
BITMAP
0090
07E0
0500
0000
7F00
2E00
2D00
2D00
2D00
1D00
1C00
1C00
ENDCHAR
STARTCHAR icircumflex
ENCODING 238
SWIDTH 411 0
DWIDTH 5 0
BBX 5 13 0 0
BITMAP
1500
3F00
7740
9180
0000
7F00
2E00
2D00
2D00
2D00
1D00
1C00
1C00
ENDCHAR
STARTCHAR idieresis
ENCODING 239
SWIDTH 411 0
DWIDTH 5 0
BBX 6 12 -1 0
BITMAP
1450
79F0
79F0
0400
1FC0
0B80
0B40
0B40
0B40
0740
0700
0700
ENDCHAR
STARTCHAR eth
ENCODING 240
SWIDTH 530 0
DWIDTH 6 0
BBX 6 9 0 -1
BITMAP
2FD0
3FF0
2FF0
1EF0
6EA0
1D90
0ED0
0FC0
0540
ENDCHAR
STARTCHAR ntilde
ENCODING 241
SWIDTH 664 0
DWIDTH 7 0
BBX 7 13 0 -1
BITMAP
0040
2FF0
1A50
0000
BDBC
3EB4
3FB0
3FF0
3FF0
2FE0
2EE0
19D0
1580
ENDCHAR
STARTCHAR ograve
ENCODING 242
SWIDTH 545 0
DWIDTH 6 0
BBX 6 12 0 -1
BITMAP
6000
B800
0500
2F80
BFE0
BFE0
7AE0
76E0
76D0
3AC0
2F80
0140
ENDCHAR
STARTCHAR oacute
ENCODING 243
SWIDTH 545 0
DWIDTH 6 0
BBX 7 12 0 -1
BITMAP
0060
01F4
0240
2F80
BFE0
BFE0
7AE0
76E0
76D0
3AC0
2F80
0140
ENDCHAR
STARTCHAR ocircumflex
ENCODING 244
SWIDTH 545 0
DWIDTH 6 0
BBX 6 14 0 -1
BITMAP
0500
2F40
3B80
60D0
0000
2F80
BFE0
BFE0
7AE0
76E0
76D0
3AC0
2F80
0140
ENDCHAR
STARTCHAR otilde
ENCODING 245
SWIDTH 545 0
DWIDTH 6 0
BBX 6 13 0 -1
BITMAP
1140
BBC0
2980
0000
2F80
BFE0
BFE0
7AE0
76E0
76D0
3AC0
2F80
0140
ENDCHAR
STARTCHAR odieresis
ENCODING 246
SWIDTH 545 0
DWIDTH 6 0
BBX 6 13 0 -1
BITMAP
5150
B6E0
B6E0
1000
2F80
BFE0
BFE0
7AE0
76E0
76D0
3AC0
2F80
0140
ENDCHAR
STARTCHAR oslash
ENCODING 248
SWIDTH 676 0
DWIDTH 7 0
BBX 7 9 0 -1
BITMAP
2F84
7FE0
7FE0
7AE0
7AE0
39D0
3AC0
5F80
0140
ENDCHAR
STARTCHAR ugrave
ENCODING 249
SWIDTH 708 0
DWIDTH 8 0
BBX 8 11 0 0
BITMAP
1800
2E00
0540
7D79
3D7C
2E78
2E78
1EB4
1EB4
0FB0
0AE0
ENDCHAR
STARTCHAR uacute
ENCODING 250
SWIDTH 708 0
DWIDTH 8 0
BBX 8 11 0 0
BITMAP
0018
007D
0050
7D79
3D7C
2E78
2E78
1EB4
1EB4
0FB0
0AE0
ENDCHAR
STARTCHAR ucircumflex
ENCODING 251
SWIDTH 708 0
DWIDTH 8 0
BBX 8 13 0 0
BITMAP
0140
0BD0
0EE0
1834
0000
7D79
3D7C
2E78
2E78
1EB4
1EB4
0FB0
0AE0
ENDCHAR
STARTCHAR udieresis
ENCODING 252
SWIDTH 708 0
DWIDTH 8 0
BBX 8 12 0 0
BITMAP
1454
2DB8
2DB8
0400
7D79
3D7C
2E78
2E78
1EB4
1EB4
0FB0
0AE0
ENDCHAR
STARTCHAR yacute
ENCODING 253
SWIDTH 604 0
DWIDTH 7 0
BBX 7 13 0 -1
BITMAP
0024
00B8
0140
0000
7CE0
1ED0
0B80
0B80
0740
0340
0340
0340
0100
ENDCHAR
STARTCHAR thorn
ENCODING 254
SWIDTH 498 0
DWIDTH 5 0
BBX 5 11 0 -1
BITMAP
BC00
B800
BF80
7FC0
7FC0
7AC0
39C0
3F80
2D00
2C00
1400
ENDCHAR
STARTCHAR ydieresis
ENCODING 255
SWIDTH 604 0
DWIDTH 7 0
BBX 7 13 0 -1
BITMAP
1450
3CF4
3CF4
0400
7CE0
1ED0
0B80
0B80
0740
0340
0340
0340
0100
ENDCHAR
STARTCHAR Amacron
ENCODING 256
SWIDTH 494 0
DWIDTH 5 0
BBX 5 13 0 -2
BITMAP
2540
2A40
0000
7F80
2F40
2F00
2F00
2B00
3B00
3F00
2B00
2600
0100
ENDCHAR
STARTCHAR amacron
ENCODING 257
SWIDTH 479 0
DWIDTH 5 0
BBX 5 12 0 -1
BITMAP
2540
2A40
0440
7F80
3F40
2F40
2F40
2B40
3B40
3B40
3B40
2640
ENDCHAR
STARTCHAR Abreve
ENCODING 258
SWIDTH 494 0
DWIDTH 5 0
BBX 6 15 0 -2
BITMAP
1000
29D0
1FC0
0140
0000
7F80
2F40
2F00
2F00
2B00
3B00
3F00
2B00
2600
0100
ENDCHAR
STARTCHAR abreve
ENCODING 259
SWIDTH 479 0
DWIDTH 5 0
BBX 6 14 0 -1
BITMAP
1000
29D0
1FC0
0140
0440
7F80
3F40
2F40
2F40
2B40
3B40
3B40
3B40
2640
ENDCHAR
STARTCHAR Aogonek
ENCODING 260
SWIDTH 494 0
DWIDTH 5 0
BBX 5 13 0 -5
BITMAP
7F80
2F40
2F00
2F00
2B00
3B00
3F00
2B00
2600
0A00
0A00
07C0
0180
ENDCHAR
STARTCHAR aogonek
ENCODING 261
SWIDTH 479 0
DWIDTH 5 0
BBX 6 13 0 -4
BITMAP
0440
7F80
3F40
2F40
2F40
2B40
3B40
3B40
3B40
2740
0300
0390
01E0
ENDCHAR
STARTCHAR Cacute
ENCODING 262
SWIDTH 504 0
DWIDTH 6 0
BBX 6 12 0 -1
BITMAP
0090
07E0
0500
2F80
BFD0
BFD0
BBD0
7580
7400
3A80
2F40
0600
ENDCHAR
STARTCHAR cacute
ENCODING 263
SWIDTH 534 0
DWIDTH 6 0
BBX 6 12 0 -1
BITMAP
0090
02E0
0600
2F80
BFE0
BFE0
BEE0
7990
7800
3AC0
2F80
0500
ENDCHAR
STARTCHAR Ccircumflex
ENCODING 264
SWIDTH 504 0
DWIDTH 6 0
BBX 6 14 0 -1
BITMAP
0500
1F40
3AC0
60D0
0000
2F80
BFD0
BFD0
BBD0
7580
7400
3A80
2F40
0600
ENDCHAR
STARTCHAR ccircumflex
ENCODING 265
SWIDTH 534 0
DWIDTH 6 0
BBX 6 14 0 -1
BITMAP
0500
0F80
2ED0
34A0
0000
2F80
BFE0
BFE0
BEE0
7990
7800
3AC0
2F80
0500
ENDCHAR
STARTCHAR Cdotaccent
ENCODING 266
SWIDTH 504 0
DWIDTH 6 0
BBX 6 13 0 -1
BITMAP
1B40
1F40
1F40
0900
2F80
BFD0
BFD0
BBD0
7580
7400
3A80
2F40
0600
ENDCHAR
STARTCHAR cdotaccent
ENCODING 267
SWIDTH 534 0
DWIDTH 6 0
BBX 6 13 0 -1
BITMAP
1B40
1F80
0F80
0940
2F80
BFE0
BFE0
BEE0
7990
7800
3AC0
2F80
0500
ENDCHAR
STARTCHAR Ccaron
ENCODING 268
SWIDTH 504 0
DWIDTH 6 0
BBX 6 14 0 -1
BITMAP
5040
76C0
3B80
2F00
0500
2F80
BFD0
BFD0
BBD0
7580
7400
3A80
2F40
0600
ENDCHAR
STARTCHAR ccaron
ENCODING 269
SWIDTH 534 0
DWIDTH 6 0
BBX 6 14 0 -1
BITMAP
2040
38E0
2EC0
0F80
0500
2F80
BFE0
BFE0
BEE0
7990
7800
3AC0
2F80
0500
ENDCHAR
STARTCHAR Dcaron
ENCODING 270
SWIDTH 522 0
DWIDTH 6 0
BBX 6 14 0 -1
BITMAP
1050
38E0
1EC0
0F80
0000
6F80
7FD0
3FE0
3ED0
2CD0
2CC0
2EC0
1B80
1200
ENDCHAR
STARTCHAR dcaron
ENCODING 271
SWIDTH 522 0
DWIDTH 6 0
BBX 6 14 0 -1
BITMAP
1050
38E0
1EC0
0F80
0000
6F80
7FD0
3FE0
3ED0
2CD0
2CC0
2EC0
1B80
1200
ENDCHAR
STARTCHAR Eth.dup2
ENCODING 272
SWIDTH 530 0
DWIDTH 6 0
BBX 6 9 0 -1
BITMAP
2FD0
3FF0
2FF0
1EF0
6EA0
1D90
0ED0
0FC0
0540
ENDCHAR
STARTCHAR Emacron
ENCODING 274
SWIDTH 570 0
DWIDTH 6 0
BBX 6 12 0 -1
BITMAP
1940
1A80
0000
7FE0
3FD0
3FC0
3D80
2E40
2F40
2D40
1B40
0400
ENDCHAR
STARTCHAR emacron
ENCODING 275
SWIDTH 632 0
DWIDTH 7 0
BBX 7 12 0 -1
BITMAP
1940
1A80
0000
7FF4
3FF0
3FE0
2EA0
2E40
1FC0
1D40
0FC0
0540
ENDCHAR
STARTCHAR Ebreve
ENCODING 276
SWIDTH 570 0
DWIDTH 6 0
BBX 6 14 0 -1
BITMAP
0400
1CA0
0FD0
0180
0000
7FE0
3FD0
3FC0
3D80
2E40
2F40
2D40
1B40
0400
ENDCHAR
STARTCHAR ebreve
ENCODING 277
SWIDTH 632 0
DWIDTH 7 0
BBX 7 14 0 -1
BITMAP
0400
0A70
07E0
0050
0000
7FF4
3FF0
3FE0
2EA0
2E40
1FC0
1D40
0FC0
0540
ENDCHAR
STARTCHAR Edotaccent
ENCODING 278
SWIDTH 570 0
DWIDTH 6 0
BBX 6 13 0 -1
BITMAP
1B40
1F80
1F80
0940
7FE0
3FD0
3FC0
3D80
2E40
2F40
2D40
1B40
0400
ENDCHAR
STARTCHAR edotaccent
ENCODING 279
SWIDTH 632 0
DWIDTH 7 0
BBX 7 13 0 -1
BITMAP
0B80
0F80
0F80
0540
7FF4
3FF0
3FE0
2EA0
2E40
1FC0
1D40
0FC0
0540
ENDCHAR
STARTCHAR Eogonek
ENCODING 280
SWIDTH 513 0
DWIDTH 6 0
BBX 6 12 0 -4
BITMAP
7FE0
3FD0
3FC0
3D80
2E40
2F40
2D40
1F40
0300
0700
03D0
0190
ENDCHAR
STARTCHAR eogonek
ENCODING 281
SWIDTH 632 0
DWIDTH 7 0
BBX 7 12 0 -4
BITMAP
7FF4
3FF0
3FE0
2EA0
2E40
1FC0
1D40
0FC0
0680
0280
01E0
0060
ENDCHAR
STARTCHAR Ecaron
ENCODING 282
SWIDTH 570 0
DWIDTH 6 0
BBX 6 14 0 -1
BITMAP
1050
38E0
1EC0
0F80
0500
7FE0
3FD0
3FC0
3D80
2E40
2F40
2D40
1B40
0400
ENDCHAR
STARTCHAR ecaron
ENCODING 283
SWIDTH 632 0
DWIDTH 7 0
BBX 7 14 0 -1
BITMAP
1410
1D74
0FE0
07C0
0140
7FF4
3FF0
3FE0
2EA0
2E40
1FC0
1D40
0FC0
0540
ENDCHAR
STARTCHAR Gcircumflex
ENCODING 284
SWIDTH 499 0
DWIDTH 5 0
BBX 6 14 0 -1
BITMAP
1500
2F00
7780
91C0
0000
2F40
BFC0
BFD0
7BC0
7680
7780
36C0
2F80
1600
ENDCHAR
STARTCHAR gcircumflex
ENCODING 285
SWIDTH 546 0
DWIDTH 6 0
BBX 6 14 0 -1
BITMAP
0500
2F40
3B80
60D0
0000
2F80
BFE0
BFE0
7BE0
75D0
3A90
39D0
2FD0
0A80
ENDCHAR
STARTCHAR Gbreve
ENCODING 286
SWIDTH 499 0
DWIDTH 5 0
BBX 6 14 0 -1
BITMAP
1000
35C0
2F80
0140
0000
2F40
BFC0
BFD0
7BC0
7680
7780
36C0
2F80
1600
ENDCHAR
STARTCHAR gbreve
ENCODING 287
SWIDTH 546 0
DWIDTH 6 0
BBX 6 14 0 -1
BITMAP
1000
29D0
1FC0
0140
0000
2F80
BFE0
BFE0
7BE0
75D0
3A90
39D0
2FD0
0A80
ENDCHAR
STARTCHAR Gdotaccent
ENCODING 288
SWIDTH 499 0
DWIDTH 5 0
BBX 6 13 0 -1
BITMAP
2B00
2F00
2F00
1500
2F40
BFC0
BFD0
7BC0
7680
7780
36C0
2F80
1600
ENDCHAR
STARTCHAR gdotaccent
ENCODING 289
SWIDTH 546 0
DWIDTH 6 0
BBX 6 13 0 -1
BITMAP
1B40
1F40
1F40
1500
2F80
BFE0
BFE0
7BE0
75D0
3A90
39D0
2FD0
0A80
ENDCHAR
STARTCHAR Gcommaaccent
ENCODING 290
SWIDTH 499 0
DWIDTH 5 0
BBX 6 15 0 -7
BITMAP
2F40
BFC0
BFD0
7BC0
7680
7780
36C0
2F80
1600
0000
0A40
1F40
1F40
0240
0340
ENDCHAR
STARTCHAR Hcircumflex
ENCODING 292
SWIDTH 726 0
DWIDTH 8 0
BBX 8 14 0 -1
BITMAP
0140
0BD0
0EE0
1870
0000
6D7D
3D7C
3DB8
2DB4
2EF4
1EF0
1DB0
1DE0
0450
ENDCHAR
STARTCHAR hcircumflex
ENCODING 293
SWIDTH 730 0
DWIDTH 8 0
BBX 8 14 0 -1
BITMAP
0140
0BD0
0EE0
1834
0010
7D7D
3D7C
3D78
2D78
1FF4
1EF0
1DB0
1DB0
0050
ENDCHAR
STARTCHAR hbar
ENCODING 295
SWIDTH 704 0
DWIDTH 8 0
BBX 8 9 0 -1
BITMAP
7DBD
3EF8
3FF4
2DB4
1EF0
1EF0
1DB0
1DB0
0050
ENDCHAR
STARTCHAR Itilde
ENCODING 296
SWIDTH 401 0
DWIDTH 4 0
BBX 6 13 -1 -1
BITMAP
1140
7BD0
2980
0000
2FC0
0F80
0B80
0B40
0B40
0B40
0740
0700
0100
ENDCHAR
STARTCHAR itilde
ENCODING 297
SWIDTH 411 0
DWIDTH 5 0
BBX 6 12 -1 0
BITMAP
1140
7BD0
2980
0000
1FC0
0B80
0B40
0B40
0B40
0740
0700
0700
ENDCHAR
STARTCHAR Imacron
ENCODING 298
SWIDTH 401 0
DWIDTH 4 0
BBX 4 12 0 -1
BITMAP
65
6A
00
BF
3E
2E
2D
2D
2D
1D
1C
04
ENDCHAR
STARTCHAR imacron
ENCODING 299
SWIDTH 411 0
DWIDTH 5 0
BBX 4 11 0 0
BITMAP
65
6A
00
7F
2E
2D
2D
2D
1D
1C
1C
ENDCHAR
STARTCHAR Ibreve
ENCODING 300
SWIDTH 401 0
DWIDTH 4 0
BBX 5 14 0 -1
BITMAP
5000
6340
7F00
0500
0000
BF00
3E00
2E00
2D00
2D00
2D00
1D00
1C00
0400
ENDCHAR
STARTCHAR ibreve
ENCODING 301
SWIDTH 411 0
DWIDTH 5 0
BBX 5 13 0 0
BITMAP
5000
A340
7F00
0500
0000
7F00
2E00
2D00
2D00
2D00
1D00
1C00
1C00
ENDCHAR
STARTCHAR Iogonek
ENCODING 302
SWIDTH 401 0
DWIDTH 4 0
BBX 4 13 0 -5
BITMAP
BF
3E
2E
2D
2D
2D
1D
1C
18
24
28
1F
01
ENDCHAR
STARTCHAR iogonek
ENCODING 303
SWIDTH 412 0
DWIDTH 5 0
BBX 4 12 0 -4
BITMAP
7F
2E
2D
2D
2D
1D
1C
1C
18
24
29
1F
ENDCHAR
STARTCHAR Idotaccent
ENCODING 304
SWIDTH 401 0
DWIDTH 4 0
BBX 4 13 0 -1
BITMAP
6D
7E
7E
25
BF
3E
2E
2D
2D
2D
1D
1C
04
ENDCHAR
STARTCHAR dotlessi
ENCODING 305
SWIDTH 411 0
DWIDTH 5 0
BBX 4 8 0 0
BITMAP
7F
2E
2D
2D
2D
1D
1C
1C
ENDCHAR
STARTCHAR IJ
ENCODING 306
SWIDTH 908 0
DWIDTH 10 0
BBX 10 9 0 -1
BITMAP
BF07D0
3E03C0
2E0380
2E0380
2D0380
2D2740
1D3B40
1D2F00
040400
ENDCHAR
STARTCHAR ij
ENCODING 307
SWIDTH 901 0
DWIDTH 10 0
BBX 10 9 0 -1
BITMAP
7F0BD0
2E07C0
2E03C0
2D03C0
2D0380
1D2780
1D3B80
1D2F40
000100
ENDCHAR
STARTCHAR Jcircumflex
ENCODING 308
SWIDTH 455 0
DWIDTH 5 0
BBX 6 13 0 0
BITMAP
0500
1F40
2AC0
6090
0000
1F40
0F00
0F00
0E00
0E00
9D00
ED00
BC00
ENDCHAR
STARTCHAR jcircumflex
ENCODING 309
SWIDTH 458 0
DWIDTH 5 0
BBX 6 14 0 -1
BITMAP
0500
1F40
2AC0
6090
0000
1F40
0F40
0F00
0F00
0F00
9F00
EE00
BD00
0400
ENDCHAR
STARTCHAR Kcommaaccent
ENCODING 310
SWIDTH 580 0
DWIDTH 6 0
BBX 6 14 0 -6
BITMAP
7DE0
3D80
2F80
1F40
1F40
1F80
0E80
0DC0
0040
0A80
0BC0
0BC0
0180
0280
ENDCHAR
STARTCHAR kcommaaccent
ENCODING 311
SWIDTH 636 0
DWIDTH 7 0
BBX 7 14 0 -6
BITMAP
7DF4
3DD0
1EC0
1F80
1F40
0F80
0EC0
0DD0
0040
0680
07D0
07D0
00C0
01C0
ENDCHAR
STARTCHAR kgreenlandic
ENCODING 312
SWIDTH 636 0
DWIDTH 7 0
BBX 7 9 0 -1
BITMAP
7DF4
3DD0
1EC0
1F80
1F40
0F80
0EC0
0DD0
0040
ENDCHAR
STARTCHAR Lacute
ENCODING 313
SWIDTH 416 0
DWIDTH 5 0
BBX 6 12 0 -1
BITMAP
0090
07E0
0500
7D00
7C00
3C00
3C00
3C00
2C00
2E40
1F80
0540
ENDCHAR
STARTCHAR lacute
ENCODING 314
SWIDTH 438 0
DWIDTH 5 0
BBX 6 13 0 -1
BITMAP
0090
02E0
0500
0000
7E00
3D00
3D00
2D00
1D00
1D00
1E40
1FC0
0440
ENDCHAR
STARTCHAR Lcommaaccent
ENCODING 315
SWIDTH 416 0
DWIDTH 5 0
BBX 5 14 0 -6
BITMAP
7D00
7C00
3C00
3C00
3C00
2C00
2E40
1F80
0540
1A00
2F00
2F00
0600
0600
ENDCHAR
STARTCHAR lcommaaccent
ENCODING 316
SWIDTH 438 0
DWIDTH 5 0
BBX 5 14 0 -6
BITMAP
7E00
3D00
3D00
2D00
1D00
1D00
1E40
1FC0
0440
1A00
2F00
2F00
0300
0600
ENDCHAR
STARTCHAR Lcaron
ENCODING 317
SWIDTH 714 0
DWIDTH 8 0
BBX 8 9 0 -1
BITMAP
7D69
7C7D
3C7D
3C5D
3C0D
2C08
2E40
1F80
0540
ENDCHAR
STARTCHAR lcaron
ENCODING 318
SWIDTH 782 0
DWIDTH 9 0
BBX 9 9 0 -1
BITMAP
7E1A00
3D2F40
3D2F40
2D1700
1D0300
1D0200
1E4000
1FC000
044000
ENDCHAR
STARTCHAR Ldotaccent
ENCODING 319
SWIDTH 567 0
DWIDTH 6 0
BBX 7 9 0 -1
BITMAP
7D00
7C54
3CF8
3CF8
3CA8
2C00
2E40
1F80
0540
ENDCHAR
STARTCHAR ldot
ENCODING 320
SWIDTH 660 0
DWIDTH 7 0
BBX 8 9 0 -1
BITMAP
7E00
3D00
3D6D
2D7E
1D3E
1D15
1E40
1FC0
0440
ENDCHAR
STARTCHAR Lslash
ENCODING 321
SWIDTH 428 0
DWIDTH 5 0
BBX 5 9 0 -1
BITMAP
7D00
3C00
3E80
7FC0
BE40
6C00
1E40
1F80
0540
ENDCHAR
STARTCHAR lslash
ENCODING 322
SWIDTH 457 0
DWIDTH 5 0
BBX 6 9 0 -1
BITMAP
7E00
3D00
2ED0
7FD0
BE40
2D00
1E40
0FC0
0440
ENDCHAR
STARTCHAR Nacute
ENCODING 323
SWIDTH 610 0
DWIDTH 7 0
BBX 7 12 0 -1
BITMAP
0024
00B8
0140
7DF0
3DE0
3EE0
3FD0
2FD0
2FD0
1EC0
1DC0
1980
ENDCHAR
STARTCHAR nacute
ENCODING 324
SWIDTH 664 0
DWIDTH 7 0
BBX 8 12 0 -1
BITMAP
0018
00BD
0090
BDBC
3EB4
3FB0
3FF0
3FF0
2FE0
2EE0
19D0
1580
ENDCHAR
STARTCHAR Ncommaaccent
ENCODING 325
SWIDTH 610 0
DWIDTH 7 0
BBX 6 15 0 -7
BITMAP
7DF0
3DE0
3EE0
3FD0
2FD0
2FD0
1EC0
1DC0
1980
0000
0680
07C0
07C0
00C0
01C0
ENDCHAR
STARTCHAR ncommaaccent
ENCODING 326
SWIDTH 664 0
DWIDTH 7 0
BBX 7 15 0 -7
BITMAP
BDBC
3EB4
3FB0
3FF0
3FF0
2FE0
2EE0
19D0
1580
0000
0290
07D0
07D0
0090
00D0
ENDCHAR
STARTCHAR Ncaron
ENCODING 327
SWIDTH 610 0
DWIDTH 7 0
BBX 6 14 0 -1
BITMAP
1450
2CE0
1ED0
0F80
0100
7DF0
3DE0
3EE0
3FD0
2FD0
2FD0
1EC0
1DC0
1980
ENDCHAR
STARTCHAR ncaron
ENCODING 328
SWIDTH 664 0
DWIDTH 7 0
BBX 7 14 0 -1
BITMAP
0410
1D74
0FE0
07D0
0140
BDBC
3EB4
3FB0
3FF0
3FF0
2FE0
2EE0
19D0
1580
ENDCHAR
STARTCHAR Omacron
ENCODING 332
SWIDTH 504 0
DWIDTH 6 0
BBX 6 12 0 -1
BITMAP
2540
2A40
0000
2F40
BFC0
BFD0
BBD0
76D0
76C0
3B80
2F40
0600
ENDCHAR
STARTCHAR omacron
ENCODING 333
SWIDTH 545 0
DWIDTH 6 0
BBX 6 12 0 -1
BITMAP
2540
2A80
0000
2F80
BFE0
BFE0
7AE0
76E0
76D0
3AC0
2F80
0140
ENDCHAR
STARTCHAR Obreve
ENCODING 334
SWIDTH 504 0
DWIDTH 6 0
BBX 6 14 0 -1
BITMAP
1000
35C0
2F80
0140
0000
2F40
BFC0
BFD0
BBD0
76D0
76C0
3B80
2F40
0600
ENDCHAR
STARTCHAR obreve
ENCODING 335
SWIDTH 545 0
DWIDTH 6 0
BBX 6 14 0 -1
BITMAP
1000
29C0
1F80
0140
0000
2F80
BFE0
BFE0
7AE0
76E0
76D0
3AC0
2F80
0140
ENDCHAR
STARTCHAR Ohungarumlaut
ENCODING 336
SWIDTH 504 0
DWIDTH 6 0
BBX 6 14 0 -1
BITMAP
0040
29D0
7680
9200
0000
2F40
BFC0
BFD0
BBD0
76D0
76C0
3B80
2F40
0600
ENDCHAR
STARTCHAR ohungarumlaut
ENCODING 337
SWIDTH 545 0
DWIDTH 6 0
BBX 6 14 0 -1
BITMAP
0040
2CE0
39C0
6200
0000
2F80
BFE0
BFE0
7AE0
76E0
76D0
3AC0
2F80
0140
ENDCHAR
STARTCHAR OE
ENCODING 338
SWIDTH 789 0
DWIDTH 9 0
BBX 8 9 0 -1
BITMAP
2FFF
BFFE
BFFD
BBE9
76E4
76F8
3BE4
2FB8
0654
ENDCHAR
STARTCHAR oe
ENCODING 339
SWIDTH 778 0
DWIDTH 9 0
BBX 8 9 0 -1
BITMAP
2FFE
BFFE
BFFD
7BEC
76E4
36F8
3BD0
2FF8
0154
ENDCHAR
STARTCHAR Racute
ENCODING 340
SWIDTH 599 0
DWIDTH 7 0
BBX 7 12 0 -1
BITMAP
0024
01F8
0140
7FE0
3FF4
2FF4
2DB4
1EB0
0FE0
0DE0
0DE0
0450
ENDCHAR
STARTCHAR racute
ENCODING 341
SWIDTH 616 0
DWIDTH 7 0
BBX 7 12 0 -1
BITMAP
0024
00B8
0140
7FE0
3FF8
2FF4
1EB4
1EB0
1FE0
1ED0
1DD0
0450
ENDCHAR
STARTCHAR Rcommaaccent
ENCODING 342
SWIDTH 599 0
DWIDTH 7 0
BBX 7 14 0 -6
BITMAP
7FE0
3FF4
2FF4
2DB4
1EB0
0FE0
0DE0
0DE0
0450
0680
0BC0
0BC0
0180
0180
ENDCHAR
STARTCHAR rcommaaccent
ENCODING 343
SWIDTH 616 0
DWIDTH 7 0
BBX 7 14 0 -6
BITMAP
7FE0
3FF8
2FF4
1EB4
1EB0
1FE0
1ED0
1DD0
0450
0680
0BC0
0BC0
00C0
0180
ENDCHAR
STARTCHAR Rcaron
ENCODING 344
SWIDTH 599 0
DWIDTH 7 0
BBX 7 14 0 -1
BITMAP
1410
1CB0
0EE0
0BC0
0100
7FE0
3FF4
2FF4
2DB4
1EB0
0FE0
0DE0
0DE0
0450
ENDCHAR
STARTCHAR rcaron
ENCODING 345
SWIDTH 616 0
DWIDTH 7 0
BBX 7 14 0 -1
BITMAP
1410
2CB0
0ED0
0BC0
0100
7FE0
3FF8
2FF4
1EB4
1EB0
1FE0
1ED0
1DD0
0450
ENDCHAR
STARTCHAR Sacute
ENCODING 346
SWIDTH 504 0
DWIDTH 6 0
BBX 6 12 0 -1
BITMAP
0060
02F0
0240
2F80
7FD0
BFD0
BBD0
7E40
2F80
67C0
3F40
1500
ENDCHAR
STARTCHAR sacute
ENCODING 347
SWIDTH 481 0
DWIDTH 5 0
BBX 6 12 0 -1
BITMAP
00A0
02E0
0500
2F40
7FC0
BFC0
BBC0
7940
2F40
2740
3F00
1500
ENDCHAR
STARTCHAR Scircumflex
ENCODING 348
SWIDTH 504 0
DWIDTH 6 0
BBX 6 14 0 -1
BITMAP
0500
1F40
2AC0
6090
0000
2F80
7FD0
BFD0
BBD0
7E40
2F80
67C0
3F40
1500
ENDCHAR
STARTCHAR scircumflex
ENCODING 349
SWIDTH 481 0
DWIDTH 5 0
BBX 6 14 0 -1
BITMAP
0500
2F40
3AC0
60D0
0000
2F40
7FC0
BFC0
BBC0
7940
2F40
2740
3F00
1500
ENDCHAR
STARTCHAR Scedilla
ENCODING 350
SWIDTH 504 0
DWIDTH 6 0
BBX 6 12 0 -4
BITMAP
2F80
7FD0
BFD0
BBD0
7E40
2F80
67C0
3F40
1A00
0A00
0240
0600
ENDCHAR
STARTCHAR scedilla
ENCODING 351
SWIDTH 481 0
DWIDTH 5 0
BBX 5 12 0 -4
BITMAP
2F40
7FC0
BFC0
BBC0
7940
2F40
2740
3F00
1D00
0E00
0300
0A00
ENDCHAR
STARTCHAR Scaron
ENCODING 352
SWIDTH 503 0
DWIDTH 6 0
BBX 6 15 0 -1
BITMAP
6080
76C0
2F80
1F00
0000
0000
2F80
7FD0
BFD0
BBD0
7E40
2F80
67C0
3F40
1500
ENDCHAR
STARTCHAR scaron
ENCODING 353
SWIDTH 479 0
DWIDTH 5 0
BBX 5 15 0 -1
BITMAP
5080
72C0
3F40
2F00
0000
0000
2F40
7FC0
BFC0
BB80
7940
2F40
2740
3F00
1500
ENDCHAR
STARTCHAR Tcommaaccent
ENCODING 354
SWIDTH 622 0
DWIDTH 7 0
BBX 7 13 0 -5
BITMAP
7FE4
3FF0
3FF0
2FA0
0740
0740
0740
0340
0740
0200
0340
0180
0280
ENDCHAR
STARTCHAR tcommaaccent
ENCODING 355
SWIDTH 683 0
DWIDTH 8 0
BBX 7 13 0 -5
BITMAP
7FFC
3FF8
2FF4
2BE4
03C0
03C0
02C0
02C0
0280
0180
0290
0090
0180
ENDCHAR
STARTCHAR Tcaron
ENCODING 356
SWIDTH 622 0
DWIDTH 7 0
BBX 7 14 0 -1
BITMAP
1050
28E0
1ED0
0F80
0100
7FE4
3FF0
3FF0
2FA0
0740
0740
0740
0340
0740
ENDCHAR
STARTCHAR tcaron
ENCODING 357
SWIDTH 622 0
DWIDTH 7 0
BBX 7 14 0 -1
BITMAP
1410
2CB0
0ED0
0BC0
0100
7FE4
3FF0
3FF0
2FA0
0740
0740
0740
0340
0740
ENDCHAR
STARTCHAR Utilde
ENCODING 360
SWIDTH 637 0
DWIDTH 7 0
BBX 7 12 0 0
BITMAP
1040
3FE0
1990
0000
7CF4
3CF0
3CF0
2CE0
2CE0
2DD0
2ED0
1E80
ENDCHAR
STARTCHAR utilde
ENCODING 361
SWIDTH 708 0
DWIDTH 8 0
BBX 8 12 0 0
BITMAP
0450
2EF0
0A60
0000
7D79
3D7C
2E78
2E78
1EB4
1EB4
0FB0
0AE0
ENDCHAR
STARTCHAR Umacron
ENCODING 362
SWIDTH 637 0
DWIDTH 7 0
BBX 7 11 0 0
BITMAP
1950
1A90
0000
7CF4
3CF0
3CF0
2CE0
2CE0
2DD0
2ED0
1E80
ENDCHAR
STARTCHAR umacron
ENCODING 363
SWIDTH 708 0
DWIDTH 8 0
BBX 8 11 0 0
BITMAP
0950
0AA0
0000
7D79
3D7C
2E78
2E78
1EB4
1EB4
0FB0
0AE0
ENDCHAR
STARTCHAR Ubreve
ENCODING 364
SWIDTH 637 0
DWIDTH 7 0
BBX 7 13 0 0
BITMAP
0400
0DB0
0BE0
0040
0000
7CF4
3CF0
3CF0
2CE0
2CE0
2DD0
2ED0
1E80
ENDCHAR
STARTCHAR ubreve
ENCODING 365
SWIDTH 708 0
DWIDTH 8 0
BBX 8 13 0 0
BITMAP
0400
0A34
07F0
0050
0000
7D79
3D7C
2E78
2E78
1EB4
1EB4
0FB0
0AE0
ENDCHAR
STARTCHAR Uring
ENCODING 366
SWIDTH 637 0
DWIDTH 7 0
BBX 7 13 0 0
BITMAP
0100
0AC0
0980
0640
0000
7CF4
3CF0
3CF0
2CE0
2CE0
2DD0
2ED0
1E80
ENDCHAR
STARTCHAR uring
ENCODING 367
SWIDTH 708 0
DWIDTH 8 0
BBX 8 13 0 0
BITMAP
0040
0790
0250
0280
0000
7D79
3D7C
2E78
2E78
1EB4
1EB4
0FB0
0AE0
ENDCHAR
STARTCHAR Uhungarumlaut
ENCODING 368
SWIDTH 637 0
DWIDTH 7 0
BBX 7 13 0 0
BITMAP
0400
0E74
1DA0
2580
0000
7CF4
3CF0
3CF0
2CE0
2CE0
2DD0
2ED0
1E80
ENDCHAR
STARTCHAR uhungarumlaut
ENCODING 369
SWIDTH 708 0
DWIDTH 8 0
BBX 8 13 0 0
BITMAP
0010
0B38
0E70
1890
0000
7D79
3D7C
2E78
2E78
1EB4
1EB4
0FB0
0AE0
ENDCHAR
STARTCHAR Uogonek
ENCODING 370
SWIDTH 637 0
DWIDTH 7 0
BBX 7 11 0 -3
BITMAP
7CF4
3CF0
3CF0
2CE0
2CE0
2DD0
2ED0
1FC0
0240
0290
01F0
ENDCHAR
STARTCHAR uogonek
ENCODING 371
SWIDTH 662 0
DWIDTH 7 0
BBX 8 11 0 -3
BITMAP
7D79
3D7C
2E78
2E74
1DB4
1EB4
0EF0
0BE0
0300
0390
01E0
ENDCHAR
STARTCHAR Wcircumflex
ENCODING 372
SWIDTH 777 0
DWIDTH 9 0
BBX 8 13 0 0
BITMAP
0140
07E0
0BB0
0C28
0040
6DCE
2EED
1FF8
0FF4
0BF4
07F0
03B0
0260
ENDCHAR
STARTCHAR wcircumflex
ENCODING 373
SWIDTH 704 0
DWIDTH 8 0
BBX 8 13 0 0
BITMAP
0140
0BD0
0EA0
1834
0000
7A69
2EAC
1FF4
1FF0
0BF0
0BF0
07A0
0260
ENDCHAR
STARTCHAR Ycircumflex
ENCODING 374
SWIDTH 688 0
DWIDTH 8 0
BBX 8 14 0 -1
BITMAP
0140
0BD0
0EE0
1870
0000
7D79
0FB4
07E0
03D0
02D0
01D0
01D0
00D0
0040
ENDCHAR
STARTCHAR ycircumflex
ENCODING 375
SWIDTH 604 0
DWIDTH 7 0
BBX 6 14 0 -1
BITMAP
0500
1F80
2ED0
30A0
0000
7CE0
1ED0
0B80
0B80
0740
0340
0340
0340
0100
ENDCHAR
STARTCHAR Ydieresis
ENCODING 376
SWIDTH 688 0
DWIDTH 8 0
BBX 8 13 0 -1
BITMAP
1454
2DB8
2DB8
0400
7D79
0FB4
07E0
03D0
02D0
01D0
01D0
00D0
0040
ENDCHAR
STARTCHAR Zacute
ENCODING 377
SWIDTH 695 0
DWIDTH 8 0
BBX 8 12 0 -1
BITMAP
001C
007D
0050
7FF9
3FFC
2FF4
2AE0
0380
0740
0B40
0FC0
0040
ENDCHAR
STARTCHAR zacute
ENCODING 378
SWIDTH 622 0
DWIDTH 7 0
BBX 7 12 0 -1
BITMAP
0024
00B8
0180
7FF4
3FF0
2FE0
2BD0
0380
0700
0A40
0FC0
0140
ENDCHAR
STARTCHAR Zdotaccent
ENCODING 379
SWIDTH 695 0
DWIDTH 8 0
BBX 8 13 0 -1
BITMAP
06D0
07D0
07D0
0640
7FF9
3FFC
2FF4
2AE0
0380
0740
0B40
0FC0
0040
ENDCHAR
STARTCHAR zdotaccent
ENCODING 380
SWIDTH 622 0
DWIDTH 7 0
BBX 7 13 0 -1
BITMAP
0B80
0F80
0F80
0940
7FF4
3FF0
2FE0
2BD0
0380
0700
0A40
0FC0
0140
ENDCHAR
STARTCHAR Zcaron
ENCODING 381
SWIDTH 693 0
DWIDTH 8 0
BBX 8 15 0 -1
BITMAP
0820
0DB0
0BE0
07C0
0000
0000
7FF9
3FFC
2FF4
2AE0
0380
0740
0B40
0FC0
0040
ENDCHAR
STARTCHAR zcaron
ENCODING 382
SWIDTH 621 0
DWIDTH 7 0
BBX 7 15 0 -1
BITMAP
2450
2CE0
1FC0
0B80
0000
0000
7FF4
3FF0
2FE0
2BD0
0380
0700
0A40
0FC0
0140
ENDCHAR
STARTCHAR DZ
ENCODING 497
SWIDTH 194 0
DWIDTH 2 0
BBX 1 1 0 0
BITMAP
00
ENDCHAR
STARTCHAR Dz
ENCODING 498
SWIDTH 194 0
DWIDTH 2 0
BBX 1 1 0 0
BITMAP
00
ENDCHAR
STARTCHAR dotlessj
ENCODING 567
SWIDTH 458 0
DWIDTH 5 0
BBX 5 9 0 -1
BITMAP
1F40
0F40
0F00
0F00
0F00
9F00
EE00
BD00
0400
ENDCHAR
STARTCHAR circumflex
ENCODING 710
SWIDTH 528 0
DWIDTH 6 0
BBX 6 4 0 8
BITMAP
0500
2F40
3A80
60D0
ENDCHAR
STARTCHAR caron
ENCODING 711
SWIDTH 486 0
DWIDTH 5 0
BBX 5 4 0 8
BITMAP
5040
B2C0
3B40
2F00
ENDCHAR
STARTCHAR breve
ENCODING 728
SWIDTH 464 0
DWIDTH 5 0
BBX 5 4 0 -1
BITMAP
1000
7280
3F40
0500
ENDCHAR
STARTCHAR dotaccent
ENCODING 729
SWIDTH 388 0
DWIDTH 4 0
BBX 4 4 0 2
BITMAP
6D
7E
3E
15
ENDCHAR
STARTCHAR ring
ENCODING 730
SWIDTH 370 0
DWIDTH 4 0
BBX 4 4 0 3
BITMAP
14
6D
65
28
ENDCHAR
STARTCHAR ogonek
ENCODING 731
SWIDTH 360 0
DWIDTH 4 0
BBX 4 4 0 0
BITMAP
20
60
74
2D
ENDCHAR
STARTCHAR tilde
ENCODING 732
SWIDTH 535 0
DWIDTH 6 0
BBX 6 3 0 -1
BITMAP
1140
7BD0
2980
ENDCHAR
STARTCHAR hungarumlaut
ENCODING 733
SWIDTH 554 0
DWIDTH 6 0
BBX 6 4 0 8
BITMAP
0040
2DE0
36C0
6200
ENDCHAR
STARTCHAR dotaccentcmb
ENCODING 775
SWIDTH 396 0
DWIDTH 4 0
BBX 4 4 0 4
BITMAP
19
7E
3E
29
ENDCHAR
STARTCHAR uni030F
ENCODING 783
SWIDTH 549 0
DWIDTH 6 0
BBX 6 4 0 8
BITMAP
1000
B680
29C0
0890
ENDCHAR
STARTCHAR uni0311
ENCODING 785
SWIDTH 490 0
DWIDTH 5 0
BBX 5 3 0 4
BITMAP
1A00
3B40
7180
ENDCHAR
STARTCHAR uni0326
ENCODING 806
SWIDTH 360 0
DWIDTH 4 0
BBX 4 5 0 -1
BITMAP
29
7D
7D
0D
0C
ENDCHAR
STARTCHAR endash
ENCODING 8211
SWIDTH 478 0
DWIDTH 5 0
BBX 5 3 0 3
BITMAP
1540
7F40
6A40
ENDCHAR
STARTCHAR emdash
ENCODING 8212
SWIDTH 567 0
DWIDTH 6 0
BBX 6 3 0 3
BITMAP
1550
7FD0
6A90
ENDCHAR
STARTCHAR quoteleft
ENCODING 8216
SWIDTH 373 0
DWIDTH 4 0
BBX 4 6 0 2
BITMAP
30
70
7D
7D
7D
14
ENDCHAR
STARTCHAR quoteright
ENCODING 8217
SWIDTH 369 0
DWIDTH 4 0
BBX 4 6 0 2
BITMAP
7D
7D
7D
0D
0C
04
ENDCHAR
STARTCHAR quotesinglbase
ENCODING 8218
SWIDTH 369 0
DWIDTH 4 0
BBX 4 6 0 2
BITMAP
7D
7D
7D
0D
0C
04
ENDCHAR
STARTCHAR quotedblleft
ENCODING 8220
SWIDTH 687 0
DWIDTH 8 0
BBX 7 6 0 2
BITMAP
3090
7090
7DFC
7DFC
7DFC
1414
ENDCHAR
STARTCHAR quotedblright
ENCODING 8221
SWIDTH 677 0
DWIDTH 7 0
BBX 7 6 0 2
BITMAP
7DF8
7DF8
BDF8
1C28
0C28
0410
ENDCHAR
STARTCHAR quotedblbase
ENCODING 8222
SWIDTH 697 0
DWIDTH 8 0
BBX 7 6 0 -4
BITMAP
7DBC
7DBC
7DBC
1D1C
0D1C
0404
ENDCHAR
STARTCHAR ellipsis
ENCODING 8230
SWIDTH 1462 0
DWIDTH 16 0
BBX 16 4 0 0
BITMAP
6D06D06D
7D03D03D
7D03D03E
14014015
ENDCHAR
STARTCHAR guilsinglleft
ENCODING 8249
SWIDTH 459 0
DWIDTH 5 0
BBX 5 6 0 1
BITMAP
1A40
2E00
7D00
7C00
2D00
0F40
ENDCHAR
STARTCHAR guilsinglright
ENCODING 8250
SWIDTH 432 0
DWIDTH 5 0
BBX 5 6 0 1
BITMAP
6800
3D00
1F40
0F40
2E00
7C00
ENDCHAR
STARTCHAR fraction
ENCODING 8260
SWIDTH 371 0
DWIDTH 4 0
BBX 4 8 0 0
BITMAP
BE
3D
3D
3C
2C
2C
2C
18
ENDCHAR
STARTCHAR Euro
ENCODING 8364
SWIDTH 587 0
DWIDTH 6 0
BBX 6 10 0 -2
BITMAP
0FD0
2FF0
3FF0
2EF0
7DA0
6D00
1DD0
0FC0
0540
0100
ENDCHAR
STARTCHAR trademark
ENCODING 8482
SWIDTH 785 0
DWIDTH 9 0
BBX 8 6 0 3
BITMAP
0015
BEBB
7D7F
187E
186A
1815
ENDCHAR
STARTCHAR minus
ENCODING 8722
SWIDTH 478 0
DWIDTH 5 0
BBX 5 3 0 3
BITMAP
1540
7F40
6A40
ENDCHAR
STARTCHAR commaaccent
ENCODING 63171
SWIDTH 360 0
DWIDTH 4 0
BBX 4 6 0 -2
BITMAP
69
7D
7D
5D
0D
08
ENDCHAR
STARTCHAR .notdef
ENCODING -1
SWIDTH 365 0
DWIDTH 4 0
BBX 4 8 0 0
BITMAP
54
41
41
41
41
41
41
55
ENDCHAR
STARTCHAR .null
ENCODING -1
SWIDTH 0 0
DWIDTH 0 0
BBX 1 1 0 0
BITMAP
00
ENDCHAR
STARTCHAR nonmarkingreturn
ENCODING -1
SWIDTH 333 0
DWIDTH 4 0
BBX 1 1 0 0
BITMAP
00
ENDCHAR
ENDFONT
